<?xml version="1.0" encoding="UTF-8"?>
<!DOCTYPE svg PUBLIC "-//W3C//DTD SVG 1.1//EN" "http://www.w3.org/Graphics/SVG/1.1/DTD/svg11.dtd">
<!-- Creator: CorelDRAW -->
<svg xmlns="http://www.w3.org/2000/svg" xml:space="preserve" width="157.168mm" height="26.7748mm" style="shape-rendering:geometricPrecision; text-rendering:geometricPrecision; image-rendering:optimizeQuality; fill-rule:evenodd; clip-rule:evenodd"
viewBox="0 0 157.168 26.7748"
 xmlns:xlink="http://www.w3.org/1999/xlink">
 <defs>
  <style type="text/css">
   <![CDATA[
    .fil1 {fill:#E07728}
    .fil4 {fill:#3598DC}
    .fil2 {fill:#56CE84}
    .fil3 {fill:#E84C3D}
    .fil0 {fill:#28516F;fill-rule:nonzero}
   ]]>
  </style>
 </defs>
 <g id="Слой_x0020_1">
  <metadata id="CorelCorpID_0Corel-Layer"/>
  <path class="fil0" d="M45.074 7.0074c1.3665,0 2.6083,0.3186 3.7255,0.9555 1.1172,0.6373 2.0034,1.5422 2.659,2.7147 0.6556,1.1724 0.9834,2.5343 0.9834,4.0853 0,1.5513 -0.3278,2.9129 -0.9834,4.0857 -0.6556,1.1725 -1.5418,2.0773 -2.659,2.7142 -1.1172,0.637 -2.359,0.9557 -3.7255,0.9557 -1.7541,0 -3.1484,-0.5265 -4.1825,-1.5789l0 3.7828c0,1.1289 -0.9235,2.0524 -2.0523,2.0524l-0.9018 0 -2.3083 0 0 -19.5182 5.0131 0 0 1.4961c0.9788,-1.1637 2.4562,-1.7453 4.4318,-1.7453zm-1.108 11.3285c0.9235,0 1.6805,-0.3182 2.2713,-0.9555 0.5909,-0.637 0.8862,-1.5095 0.8862,-2.6175 0,-1.1077 -0.2953,-1.9802 -0.8862,-2.6175 -0.5908,-0.6369 -1.3478,-0.9556 -2.2713,-0.9556 -0.9232,0 -1.6802,0.3187 -2.271,0.9556 -0.5908,0.6373 -0.8866,1.5098 -0.8866,2.6175 0,1.108 0.2958,1.9805 0.8866,2.6175 0.5908,0.6373 1.3478,0.9555 2.271,0.9555zm26.258 -3.5452c0,0.037 -0.0275,0.4708 -0.0831,1.3017l-10.9131 0c0.2218,0.7756 0.651,1.371 1.2879,1.7865 0.6373,0.4155 1.4359,0.6232 2.396,0.6232 0.7201,0 1.3433,-0.1014 1.8696,-0.3045 0.5264,-0.2032 1.0573,-0.5356 1.5926,-0.9972l2.7698 2.8805c-1.4587,1.6249 -3.5913,2.4376 -6.3981,2.4376 -1.7542,0 -3.296,-0.3325 -4.6255,-0.9972 -1.3295,-0.6647 -2.359,-1.5879 -3.0886,-2.7699 -0.7291,-1.1817 -1.0939,-2.5203 -1.0939,-4.016 0,-1.4774 0.3556,-2.8023 1.0665,-3.9748 0.7108,-1.1724 1.6939,-2.0911 2.9498,-2.7562 1.2556,-0.6647 2.6682,-0.997 4.2378,-0.997 1.4957,0 2.8526,0.3094 4.0716,0.9281 1.2186,0.6186 2.1833,1.5139 2.8945,2.6867 0.7109,1.1725 1.0662,2.5619 1.0662,4.1685zm-8.0049 -4.0438c-0.8122,0 -1.4907,0.2307 -2.0357,0.6922 -0.5447,0.4617 -0.8909,1.0894 -1.0387,1.8837l6.1489 0c-0.1475,-0.7943 -0.4936,-1.422 -1.0386,-1.8837 -0.5447,-0.4615 -1.2232,-0.6922 -2.0359,-0.6922zm15.4555 -1.6897c0.5355,-0.6834 1.2327,-1.1957 2.0915,-1.5372 0.8584,-0.3415 1.8417,-0.5126 2.9497,-0.5126l0 4.7366c-0.4802,-0.0556 -0.877,-0.0831 -1.191,-0.0831 -1.1264,0 -2.008,0.3046 -2.6453,0.9141 -0.6369,0.6091 -0.9556,1.5418 -0.9556,2.7973l0 6.8969 -5.2624 0 0 -15.0126 5.0131 0 0 1.8006zm16.7019 -2.0498c1.3665,0 2.6083,0.3186 3.7255,0.9555 1.1172,0.6373 2.0034,1.5422 2.659,2.7147 0.6556,1.1724 0.9834,2.5343 0.9834,4.0853 0,1.5513 -0.3278,2.9129 -0.9834,4.0857 -0.6556,1.1725 -1.5418,2.0773 -2.659,2.7142 -1.1172,0.637 -2.359,0.9557 -3.7255,0.9557 -1.7541,0 -3.1484,-0.5265 -4.1825,-1.5789l0 3.7828c0,1.1289 -0.9235,2.0524 -2.0523,2.0524l-0.9018 0 -2.3083 0 0 -19.5182 5.0131 0 0 1.4961c0.9788,-1.1637 2.4562,-1.7453 4.4318,-1.7453zm-1.108 11.3285c0.9235,0 1.6805,-0.3182 2.2713,-0.9555 0.5908,-0.637 0.8862,-1.5095 0.8862,-2.6175 0,-1.1077 -0.2954,-1.9802 -0.8862,-2.6175 -0.5908,-0.6369 -1.3478,-0.9556 -2.2713,-0.9556 -0.9232,0 -1.6803,0.3187 -2.271,0.9556 -0.5909,0.6373 -0.8866,1.5098 -0.8866,2.6175 0,1.108 0.2957,1.9805 0.8866,2.6175 0.5907,0.6373 1.3478,0.9555 2.271,0.9555zm15.9265 -9.2787c0.5355,-0.6834 1.2327,-1.1957 2.0914,-1.5372 0.8584,-0.3415 1.8418,-0.5126 2.9499,-0.5126l0 4.7366c-0.4803,-0.0556 -0.8771,-0.0831 -1.1912,-0.0831 -1.1263,0 -2.0079,0.3046 -2.6452,0.9141 -0.637,0.6091 -0.9556,1.5418 -0.9556,2.7973l0 6.8969 -5.2624 0 0 -15.0126 5.0131 0 0 1.8006zm7.257 -1.8006l5.2624 0 0 15.0126 -5.2624 0 0 -15.0126zm2.6312 -1.6619c-0.9602,0 -1.7358,-0.2676 -2.3267,-0.8031 -0.5908,-0.5355 -0.8862,-1.2003 -0.8862,-1.9942 0,-0.794 0.2954,-1.4588 0.8862,-1.9943 0.5909,-0.5355 1.3665,-0.8031 2.3267,-0.8031 0.9601,0 1.7358,0.2538 2.3266,0.7616 0.5908,0.5077 0.8862,1.1587 0.8862,1.9527 0,0.8309 -0.2954,1.5189 -0.8862,2.0636 -0.5908,0.5447 -1.3665,0.8168 -2.3266,0.8168zm13.7105 16.9238c-1.6619,0 -3.1481,-0.3325 -4.4593,-0.9972 -1.3112,-0.6647 -2.3312,-1.5879 -3.0607,-2.7699 -0.7292,-1.1817 -1.094,-2.5203 -1.094,-4.016 0,-1.4957 0.3648,-2.8301 1.094,-4.0026 0.7295,-1.1724 1.7495,-2.0865 3.0607,-2.7421 1.3112,-0.6555 2.7974,-0.9833 4.4593,-0.9833 1.6988,0 3.167,0.3647 4.4039,1.0943 1.2373,0.7292 2.1144,1.7403 2.6316,3.0329l-4.0716 2.0773c-0.6834,-1.3481 -1.6806,-2.0221 -2.9914,-2.0221 -0.9419,0 -1.7221,0.3141 -2.3407,0.9419 -0.6183,0.6278 -0.9278,1.4957 -0.9278,2.6037 0,1.1264 0.3095,2.008 0.9278,2.645 0.6186,0.6373 1.3988,0.9555 2.3407,0.9555 1.3108,0 2.308,-0.6739 2.9914,-2.0217l4.0716 2.0773c-0.5172,1.2926 -1.3943,2.3035 -2.6316,3.033 -1.2369,0.7292 -2.7051,1.094 -4.4039,1.094zm24.3743 -7.7278c0,0.037 -0.0275,0.4708 -0.0831,1.3017l-10.9131 0c0.2218,0.7756 0.651,1.371 1.288,1.7865 0.6373,0.4155 1.4358,0.6232 2.3959,0.6232 0.7201,0 1.3433,-0.1014 1.8697,-0.3045 0.5263,-0.2032 1.0573,-0.5356 1.5925,-0.9972l2.7699 2.8805c-1.4587,1.6249 -3.5914,2.4376 -6.3983,2.4376 -1.7541,0 -3.2959,-0.3325 -4.6254,-0.9972 -1.3295,-0.6647 -2.359,-1.5879 -3.0886,-2.7699 -0.7292,-1.1817 -1.0939,-2.5203 -1.0939,-4.016 0,-1.4774 0.3556,-2.8023 1.0665,-3.9748 0.7109,-1.1724 1.6939,-2.0911 2.9498,-2.7562 1.2556,-0.6647 2.6682,-0.997 4.2378,-0.997 1.4957,0 2.8527,0.3094 4.0716,0.9281 1.2186,0.6186 2.1833,1.5139 2.8946,2.6867 0.7108,1.1725 1.0661,2.5619 1.0661,4.1685zm-8.0048 -4.0438c-0.8123,0 -1.4908,0.2307 -2.0358,0.6922 -0.5447,0.4617 -0.8908,1.0894 -1.0387,1.8837l6.1489 0c-0.1475,-0.7943 -0.4936,-1.422 -1.0386,-1.8837 -0.5447,-0.4615 -1.2232,-0.6922 -2.0358,-0.6922z"/>
  <path class="fil1" d="M12.9822 15.6282l3.1839 0 -0.0003 -0.0001 0.0003 -0.0008c1.3839,-0.0352 2.7901,-1.1429 3.1995,-2.513l0.0024 0 -0.0002 0.0009 -1.0327 3.9994c-0.6933,2.685 -3.3476,4.9071 -6.0346,5.1349l-0.0051 0.0197 -3.5577 0c-0.0412,0 -0.0819,-0.0008 -0.1227,-0.0015l1.02 -3.9504c0.3789,-1.4672 1.8794,-2.6691 3.3472,-2.6891z"/>
  <path class="fil2" d="M23.5275 7.2566l4.0066 0c-0.0109,0.0458 -0.0219,0.0914 -0.0338,0.1373l-2.0907 8.097c-0.9627,3.7281 -4.8005,6.7783 -8.5286,6.7783l-4.5856 0 0.0051 -0.0197c2.687,-0.2278 5.3413,-2.4499 6.0346,-5.1349l1.8963 -7.3439c0.4483,-1.3867 1.8871,-2.4948 3.2961,-2.5141z"/>
  <path class="fil3" d="M15.2389 7.2567l3.5575 0c0.0412,0 0.0819,0.0007 0.1227,0.0014l-1.0199 3.9499c-0.3789,1.4671 -1.8793,2.6691 -3.3472,2.6891l-0.0001 0.0005 -3.1836 0 -0.0002 0.0009c-1.384,0.0352 -2.7902,1.1429 -3.1996,2.5129l-0.0023 0 0.649 -2.5138 0.3839 -1.4866c0.6932,-2.6848 3.3475,-4.9069 6.0347,-5.1347l0.0051 -0.0196zm-13.0771 6.6409l-0.0001 0 0.0015 -0.0052 -0.0014 0.0052z"/>
  <path class="fil4" d="M4.0009 22.2692l-4.0009 0c0.0109,-0.0458 0.022,-0.0915 0.0338,-0.1373l2.0907 -8.097c0.9627,-3.728 4.8005,-6.7783 8.5286,-6.7783l4.5858 0 -0.0051 0.0197c-2.6872,0.2278 -5.3415,2.4499 -6.0348,5.1347l-1.8547 7.1829c-0.3846,1.4609 -1.8801,2.6553 -3.3434,2.6753z"/>
 </g>
</svg>
